<?xml version="1.0" encoding="utf-8"?>
<!-- Generator: Adobe Illustrator 18.0.0, SVG Export Plug-In . SVG Version: 6.00 Build 0)  -->
<!DOCTYPE svg PUBLIC "-//W3C//DTD SVG 1.1//EN" "http://www.w3.org/Graphics/SVG/1.1/DTD/svg11.dtd">
<svg version="1.1" id="Layer_1" xmlns="http://www.w3.org/2000/svg" xmlns:xlink="http://www.w3.org/1999/xlink" x="0px" y="0px"
	 viewBox="0 0 600 600" enable-background="new 0 0 600 600" xml:space="preserve">
<ellipse fill="#FFFFFF" stroke="#000000" stroke-width="4" stroke-miterlimit="10" cx="300" cy="300" rx="250" ry="178.2"/>
<g>
	<path stroke="#000000" stroke-width="4" stroke-miterlimit="10" d="M66.5,327.2c1.2,0.4,2.4,0.9,3.6,1.4c1.2,0.5,2.5,1.1,3.8,1.6
		c1.3,0.5,2.7,0.9,4.1,1.3c1.4,0.3,2.9,0.5,4.5,0.5c1.9,0,3.8-0.2,5.7-0.7c1.9-0.4,3.8-1.1,5.6-2c1.8-0.9,3.6-1.9,5.3-3.2
		c1.7-1.2,3.2-2.7,4.6-4.3c1.5-1.7,2.8-3.3,3.9-4.7c1-1.4,1.9-2.7,2.5-3.8c0.6-1.1,1.1-2.1,1.4-2.9c0.3-0.8,0.4-1.5,0.4-2.1
		c0-0.9-0.3-1.6-0.9-2.2c-0.6-0.6-1.4-1.2-2.3-1.6c-1-0.4-2.1-0.7-3.3-0.9c-1.2-0.2-2.5-0.3-3.9-0.3c-0.8,0-1.7,0-2.8,0.1
		c-1.1,0.1-2.1,0.1-3.2,0.2c-1.1,0.1-2.2,0.1-3.2,0.1c-1,0-1.9,0.1-2.7,0.1c-1.1,0-2.3-0.1-3.5-0.4c-1.2-0.3-2.4-0.7-3.6-1.3
		c-1.2-0.6-2.2-1.4-3.2-2.4c-1-1-1.8-2.2-2.5-3.7c-0.2-0.5-0.4-1-0.6-1.7c-0.2-0.6-0.3-1.4-0.3-2.1c0-0.8,0.1-1.6,0.2-2.3
		c0.1-0.7,0.3-1.4,0.4-2.1c0.5-1.7,1.3-3.4,2.4-5.2c1.1-1.8,2.4-3.5,4-5.2c1.6-1.7,3.3-3.3,5.1-4.9c1.8-1.6,3.7-3.1,5.6-4.4
		c1.9-1.4,3.8-2.6,5.7-3.7c1.9-1.1,3.6-2.1,5.2-2.8c2.3-1.1,4.6-1.9,6.9-2.4c2.3-0.5,4.7-0.7,7-0.7c1.4,0,2.7,0.2,3.9,0.5
		c1.2,0.4,2.3,0.9,3.3,1.6c0.9,0.7,1.7,1.5,2.2,2.5c0.5,1,0.8,2.2,0.8,3.5c0,0.8-0.1,1.4-0.3,1.9c-0.2,0.5-0.4,0.9-0.7,1.3
		c-0.3,0.3-0.6,0.6-0.9,0.7c-0.3,0.1-0.7,0.2-1,0.2c-0.9,0-1.8-0.1-2.5-0.3c-0.8-0.2-1.5-0.4-2.2-0.7s-1.4-0.5-2.2-0.7
		c-0.7-0.2-1.5-0.3-2.4-0.3c-2.5,0-5.1,0.5-7.7,1.5c-2.6,1-5.2,2.3-7.7,3.9c-2.5,1.6-4.8,3.3-7,5.2c-2.2,1.9-4.2,3.8-5.9,5.6
		c-0.9,1-1.6,1.9-2,2.9c-0.4,1-0.6,1.9-0.6,2.7c0,1.3,0.5,2.3,1.6,3c1.1,0.7,2.4,1.1,4,1.1c0.9,0,2,0,3.1-0.1c1.2,0,2.4-0.1,3.6-0.1
		c1.2-0.1,2.4-0.1,3.5-0.2c1.1-0.1,2.2-0.1,3.1-0.1c2.1,0,4.2,0.3,6.1,0.9c2,0.6,3.7,1.5,5.2,2.6c1.5,1.2,2.7,2.6,3.6,4.3
		c0.9,1.7,1.4,3.7,1.4,5.9c0,1.4-0.2,2.8-0.6,4.2c-0.4,1.4-1,2.8-1.7,4.2c-0.7,1.4-1.5,2.8-2.5,4.2s-1.9,2.7-2.9,4.1
		c-1.8,2.4-3.9,4.7-6.2,6.8c-2.3,2.1-4.7,4-7.3,5.5c-2.6,1.6-5.3,2.8-8.1,3.7c-2.9,0.9-5.8,1.4-8.8,1.4c-1.3,0-2.6-0.1-4-0.4
		c-1.4-0.2-2.7-0.6-4.1-1.1c-1.3-0.5-2.6-1-3.8-1.7c-1.2-0.7-2.2-1.5-3.1-2.4c-0.9-0.9-1.6-1.9-2.1-3c-0.5-1.1-0.8-2.3-0.8-3.5
		c0-0.6,0.1-1.2,0.3-1.8C65.3,327.4,65.8,327.2,66.5,327.2z"/>
	<path stroke="#000000" stroke-width="4" stroke-miterlimit="10" d="M176.5,339.6c-0.7,0-1.4-0.1-1.9-0.4c-0.5-0.3-1-0.6-1.4-1.1
		c-0.4-0.4-0.6-1-0.8-1.5c-0.2-0.6-0.3-1.2-0.3-1.7c0-0.5,0.1-1.2,0.4-2.1c0.3-0.9,0.6-1.9,1.1-3.1c0.4-1.1,0.9-2.3,1.4-3.5
		c0.5-1.2,1-2.4,1.5-3.5c0.5-1.1,0.9-2.2,1.2-3.1c0.3-1,0.6-1.7,0.7-2.3c0.1-0.6,0.3-1.4,0.5-2.2c0.2-0.9,0.4-1.8,0.7-2.8
		c0.3-1,0.5-2.1,0.8-3.2c0.3-1.1,0.5-2.2,0.8-3.4c-0.5,0.1-1.1,0.2-1.8,0.3c-0.7,0.1-1.4,0.2-2.2,0.2c-1.1,0.1-2.2,0.3-3.3,0.5
		c-1.1,0.2-2.2,0.4-3.4,0.7c-1.1,0.3-2.3,0.5-3.6,0.8c-1.2,0.3-2.6,0.6-4,0.9c-2.1,0.4-4.1,0.9-6.2,1.5c-2.1,0.5-4.2,0.8-6.4,0.8
		c-0.7,0-1.3-0.2-1.9-0.5c-0.6-0.4-1.2-0.6-2-0.8c-0.7,1.1-1.3,2.3-2,3.5c-0.6,1.3-1.2,2.5-1.7,3.9c-0.5,1.3-1,2.6-1.4,3.9
		c-0.4,1.3-0.8,2.5-1.1,3.6c-0.2,0.6-0.3,1.4-0.4,2.4c-0.1,1-0.2,2-0.3,3c-0.1,1-0.2,2-0.3,2.9c-0.1,0.9-0.2,1.7-0.3,2.2
		c-0.1,0.5-0.3,1-0.6,1.5c-0.3,0.5-0.7,0.9-1.1,1.4c-0.4,0.4-0.9,0.7-1.5,1c-0.5,0.3-1.1,0.4-1.6,0.4c-1,0-1.7-0.3-2.3-0.8
		c-0.6-0.6-1.1-1.3-1.4-2.1c-0.4-0.8-0.6-1.8-0.7-2.7c-0.1-1-0.2-1.9-0.2-2.7c0-2.1,0.3-4.3,0.8-6.5c0.5-2.2,1.2-4.5,2.1-6.8
		c0.9-2.3,1.9-4.6,3.1-7c1.2-2.3,2.5-4.7,3.8-7c1.1-2.1,2.5-4.5,4.2-7.2c1.7-2.7,3.6-5.6,5.6-8.4c2.1-2.9,4.3-5.7,6.7-8.5
		c2.4-2.8,4.9-5.2,7.5-7.4c2.6-2.2,5.3-3.9,8-5.3c2.7-1.3,5.5-2,8.2-2c2.8,0,5.2,0.5,7.1,1.5c1.9,1,3.4,2.4,4.5,4.2
		c1.1,1.7,1.9,3.8,2.4,6.1c0.5,2.3,0.7,4.8,0.7,7.4c0,2.3-0.1,4.7-0.4,7.1c-0.3,2.4-0.7,4.8-1.1,7.1c-0.4,2.3-0.9,4.6-1.4,6.7
		c-0.5,2.2-0.9,4.1-1.4,5.9l-1.8,7c-0.1,0.2-0.2,0.6-0.4,1.2c-0.2,0.6-0.4,1.4-0.7,2.2c-0.3,0.9-0.6,1.8-1,2.8c-0.4,1-0.7,2-1.1,3
		c-0.4,1-0.7,1.9-1,2.7c-0.3,0.8-0.6,1.5-0.8,2l0.1-0.1c-0.2,0.9-0.5,1.8-0.8,2.7c-0.3,0.9-0.7,1.8-1.1,2.5
		c-0.5,0.7-1.1,1.3-1.8,1.8C178.6,339.4,177.7,339.6,176.5,339.6z M179.1,275.3c-1.5,0-3.1,0.3-4.6,0.9c-1.5,0.6-3,1.5-4.5,2.5
		c-1.5,1-2.9,2.2-4.3,3.6c-1.4,1.4-2.7,2.8-4,4.2c-1.3,1.4-2.4,2.9-3.5,4.3c-1.1,1.5-2.1,2.8-3,4c-0.1,0.2-0.3,0.5-0.5,0.8
		c-0.2,0.3-0.4,0.7-0.7,1.1c-0.2,0.4-0.4,0.8-0.6,1.2c-0.2,0.4-0.4,0.8-0.5,1.2h5.3c1.9,0,4.1-0.1,6.6-0.4c2.5-0.3,4.9-0.6,7.3-1
		c2.4-0.4,4.6-0.8,6.6-1.2c2-0.4,3.5-0.7,4.6-0.9c0.1-0.4,0.3-1,0.4-1.8c0.1-0.8,0.2-1.6,0.3-2.5c0.1-0.9,0.2-1.9,0.2-3
		c0.1-1,0.1-2.1,0.1-3.2c0-0.9,0-1.9-0.1-3.1c-0.1-1.1-0.3-2.2-0.6-3.3c-0.3-1-0.9-1.9-1.6-2.6C181.3,275.7,180.3,275.3,179.1,275.3
		z"/>
	<path stroke="#000000" stroke-width="4" stroke-miterlimit="10" d="M219.9,276.9c0.2-0.9,0.5-1.8,0.8-2.8c0.3-1,0.7-1.9,1.2-2.8
		c0.5-0.8,1.2-1.5,2-2.1c0.8-0.6,1.9-0.8,3.1-0.8c1.2,0,2.3,0.3,3.2,1c0.9,0.7,1.8,1.3,2.5,2c0.9,0.6,1.7,1.8,2.6,3.5
		c0.8,1.8,1.7,4,2.5,6.6c0.9,2.6,1.8,5.5,2.8,8.8c1,3.3,2.1,6.7,3.3,10.3c1.2,3.6,2.6,7.3,4.1,11c1.5,3.7,3.2,7.4,5.1,11
		c0.3,0.5,0.7,1.2,1.1,1.9c0.4,0.7,0.8,1.4,1.3,2.1c0.4,0.7,0.8,1.2,1.2,1.6c0.4,0.4,0.6,0.7,0.8,0.7c0.1,0,0.2-0.3,0.4-0.8
		c0.1-0.5,0.3-1.1,0.5-1.8c0.2-0.7,0.4-1.5,0.5-2.2c0.2-0.8,0.4-1.4,0.5-1.8c0.6-1.6,1.4-3.4,2.1-5.4c0.8-2,1.6-4.5,2.6-7.4
		c0.9-2.9,2-6.3,3.1-10.3c1.1-4,2.4-8.7,3.7-14.1c0.3-1.3,0.7-2.8,1.1-4.5s0.8-3.4,1.1-5.2c0.4-1.8,0.7-3.5,1-5.2
		c0.3-1.7,0.5-3.1,0.6-4.4c0-0.2,0-0.6,0.1-1.1c0-0.5,0.1-1.1,0.2-1.7c0.1-0.6,0.2-1.3,0.3-2c0.1-0.7,0.3-1.3,0.5-1.9
		c0.2-0.6,0.5-1.1,0.8-1.4c0.3-0.4,0.8-0.6,1.2-0.6c0.5,0,1.1,0.1,1.8,0.2c0.7,0.1,1.3,0.3,1.9,0.6c0.6,0.9,1.2,2,1.8,3.2
		c0.5,1.3,0.8,2.9,0.8,5.1c0,1.3-0.1,2.9-0.4,4.8c-0.3,1.9-0.6,3.9-1.1,6c-0.4,2.1-0.9,4.3-1.4,6.6c-0.5,2.3-1.1,4.4-1.6,6.5
		c-0.5,2.1-1.1,4-1.6,5.7c-0.5,1.7-0.9,3.2-1.3,4.3c-0.6,2-1.3,4-1.9,6.1c-0.7,2.1-1.4,4.3-2.2,6.6c-0.8,2.3-1.7,4.8-2.6,7.3
		c-0.9,2.6-2,5.3-3.2,8.3c-0.5,1.3-1.1,2.7-1.8,4c-0.7,1.3-1.4,2.5-2.3,3.6c-0.9,1.1-1.8,2-2.9,2.6c-1.1,0.7-2.3,1-3.6,1
		c-0.8,0-1.6-0.1-2.4-0.3c-0.8-0.2-1.6-0.7-2.1-1.4c-2.8-3.3-5.3-6.9-7.5-11.1c-2.2-4.1-4.2-8.4-5.9-12.9c-1.7-4.5-3.3-9.1-4.6-13.7
		c-1.3-4.6-2.6-9-3.6-13.2l-0.3-1.2c-0.1-0.5-0.3-1-0.4-1.5c-0.1-0.5-0.2-0.9-0.4-1.4c-0.1-0.4-0.3-0.7-0.4-1
		c-0.2-0.3-0.3-0.4-0.5-0.4s-0.5,0.4-0.8,1.1c-0.3,0.8-0.6,1.6-0.9,2.5c-0.3,0.9-0.6,1.9-0.8,2.7c-0.3,0.9-0.4,1.5-0.5,1.7
		c-0.2,0.9-0.6,2.2-1.1,3.8c-0.5,1.7-1,3.5-1.6,5.6c-0.6,2.1-1.3,4.3-2,6.6c-0.7,2.3-1.4,4.6-2,6.8c-0.6,2.2-1.3,4.2-1.8,6
		c-0.6,1.8-1.1,3.3-1.4,4.5c-0.3,0.9-0.7,2-1.1,3.4c-0.4,1.4-0.9,2.8-1.3,4.2c-0.4,1.4-0.9,2.7-1.2,3.9c-0.4,1.2-0.6,1.9-0.7,2.3
		c-0.4,1.3-1,2.3-1.8,3s-1.6,1-2.4,1c-0.5,0-1-0.2-1.5-0.5c-0.5-0.4-1-0.8-1.4-1.3c-0.4-0.5-0.7-1.1-1-1.7c-0.3-0.6-0.4-1.1-0.4-1.6
		c0-0.3,0.1-0.7,0.3-1.3c0.2-0.6,0.4-1.6,0.8-3.1l1.3-5.3L219.9,276.9z"/>
	<path stroke="#000000" stroke-width="4" stroke-miterlimit="10" d="M288.1,317.2c0-2,0.2-4.2,0.7-6.8c0.5-2.5,1.3-5,2.5-7.3
		c1.6-3.3,3.5-6.5,5.5-9.5c2-3.1,4.1-5.9,6.2-8.5c2.1-2.6,4.2-4.9,6.4-6.9c2.1-2,4.1-3.6,6.1-4.7l-0.1,0.1c1.2-0.8,2.5-1.5,3.8-2.4
		c1.3-0.8,2.7-1.6,4.1-2.3c1.4-0.7,2.8-1.2,4.3-1.7c1.4-0.4,2.9-0.7,4.3-0.7c1.4,0,2.8,0.3,4.1,0.9c1.3,0.6,2.4,1.4,3.4,2.4
		c1,1,1.7,2.2,2.3,3.5c0.6,1.3,0.8,2.8,0.8,4.3c0,1.1-0.1,1.9-0.2,2.5c-0.1,0.6-0.3,1.1-0.6,1.4c-0.3,0.3-0.6,0.5-1,0.6
		c-0.4,0.1-0.8,0.1-1.4,0.1c-0.8,0-1.3-0.2-1.8-0.5c-0.4-0.3-0.8-0.7-1-1.2c-0.3-0.5-0.5-1-0.6-1.5c-0.1-0.6-0.3-1.1-0.5-1.5
		c-0.2-0.5-0.4-0.9-0.7-1.2c-0.3-0.3-0.7-0.5-1.2-0.5c-1.4,0-2.9,0.3-4.4,0.9c-1.6,0.6-3.2,1.4-4.9,2.5c-1.7,1-3.3,2.2-5,3.5
		c-1.7,1.3-3.2,2.7-4.8,4c-1.5,1.4-2.9,2.7-4.2,4.1c-1.3,1.3-2.4,2.5-3.3,3.6c-1.4,1.7-2.6,3.5-3.7,5.3c-1.1,1.8-2.1,3.6-2.9,5.5
		c-0.8,1.9-1.5,3.8-1.9,5.8c-0.4,2-0.7,4-0.7,6.1c0,1.6,0.2,3.1,0.7,4.3c0.5,1.2,1,2.3,1.5,3.2c0.6,1,1.5,1.7,2.4,2.1
		c1,0.4,2.1,0.6,3.4,0.6c2.9,0,5.6-0.3,8.1-0.8c2.5-0.5,4.8-1.3,7.1-2.2c2.3-0.9,4.5-2,6.6-3.3c2.2-1.3,4.4-2.6,6.7-4.1h1.3
		c0.4,0,0.9,0.1,1.4,0.4c0.5,0.2,0.9,0.5,1.2,0.9c0.4,0.4,0.7,0.8,0.9,1.3c0.2,0.5,0.3,1,0.3,1.5c0,1.1-0.4,2.3-1.3,3.4
		c-0.9,1.1-2,2.2-3.4,3.2c-1.4,1-3,2-4.7,2.8c-1.7,0.9-3.5,1.7-5.2,2.4c-1.7,0.7-3.3,1.3-4.8,1.7c-1.5,0.5-2.7,0.8-3.5,1
		c-0.8,0.2-1.5,0.3-2.2,0.5c-0.7,0.2-1.5,0.3-2.5,0.5c-1,0.2-2.1,0.3-3.4,0.4c-1.3,0.1-3,0.1-5,0.1c-1.2,0-2.4-0.2-3.4-0.6
		c-1-0.4-1.9-0.9-2.7-1.4c-0.8-0.5-1.5-1.1-2.1-1.7c-0.6-0.6-1-1.1-1.4-1.5c-2-2.4-3.5-4.7-4.4-7
		C288.6,322.4,288.1,319.9,288.1,317.2z"/>
	<path stroke="#000000" stroke-width="4" stroke-miterlimit="10" d="M347.1,337.5c0-0.4,0.1-0.9,0.2-1.5c0.1-0.6,0.3-1.3,0.4-2
		c0.2-0.7,0.4-1.3,0.5-1.9c0.2-0.6,0.3-1.1,0.4-1.5l20.8-68.2c0.2-0.2,0.4-0.4,0.6-0.6c0.2-0.2,0.4-0.3,0.7-0.4
		c0.3-0.1,0.6-0.2,1.1-0.2h0.9c0.8,0,1.4,0.1,1.9,0.4c0.5,0.3,0.9,0.6,1.2,1c0.3,0.4,0.5,0.9,0.6,1.5c0.1,0.6,0.2,1.2,0.2,1.8
		c0,0.5,0,1.1-0.1,1.7c-0.1,0.6-0.2,1.2-0.3,1.7c-0.1,0.6-0.2,1.1-0.3,1.6c-0.1,0.5-0.2,0.9-0.3,1.1L365,308.5l4.9-0.5
		c5.4-1.2,11-2.4,16.7-3.7c5.7-1.3,11.2-2.5,16.7-3.7c0.6-0.3,1.2-0.9,1.6-1.9c0.5-1,0.9-2.2,1.4-3.7c0.5-1.5,1-3.3,1.5-5.4
		c0.5-2.1,1.2-4.4,2-6.9l1.1-3.5c0.4-1.7,0.8-3.5,1.2-5.3c0.4-1.8,0.8-3.4,1.3-4.9c0.5-1.5,1.2-2.7,2-3.6c0.8-0.9,1.8-1.4,3-1.4
		c1.7,0,3.1,0.6,4.1,1.7c1,1.1,1.4,2.5,1.4,4.2c0,1.1-0.4,2.8-1.2,5.3c-0.8,2.5-1.8,5.5-3,9.1c-0.4,1.3-0.9,2.7-1.4,4.1
		c-0.5,1.4-1,2.7-1.4,4c-0.4,1.3-0.8,2.5-1.1,3.5c-0.3,1.1-0.4,1.9-0.4,2.6c0,0.6,0.1,1.2,0.3,1.8c0.2,0.6,0.3,1.2,0.3,1.9
		c0,1.5-0.4,2.8-1.2,3.9c-0.8,1-2,2.1-3.4,3.1c-0.1,0.3-0.2,0.7-0.3,1.3c-0.1,0.6-0.3,1.2-0.4,1.8l-0.7,2.6
		c-0.5,1.9-0.9,3.8-1.2,5.6c-0.3,1.9-0.6,3.7-0.9,5.6c-0.3,1.8-0.5,3.7-0.8,5.5c-0.3,1.8-0.7,3.7-1.1,5.5c-0.2,0.7-0.5,1.3-0.9,1.8
		c-0.4,0.5-0.9,1-1.5,1.4c-0.6,0.4-1.2,0.7-1.8,0.9c-0.6,0.2-1.2,0.3-1.7,0.3c-0.8,0-1.5-0.2-2-0.6c-0.5-0.4-0.9-0.8-1.2-1.3
		c-0.3-0.5-0.5-1-0.6-1.6c-0.1-0.5-0.2-1-0.2-1.4c0-0.4,0.1-1.1,0.2-2c0.1-0.9,0.3-2,0.5-3.3c0.2-1.3,0.4-2.6,0.7-4.1
		c0.3-1.5,0.5-3,0.8-4.5c0.6-3.5,1.4-7.3,2.3-11.5H400c-0.9,0-1.8,0.1-2.9,0.3c-1,0.2-2.3,0.5-3.7,0.8c-0.7,0.2-1.6,0.5-2.9,0.8
		c-1.3,0.3-2.7,0.7-4.4,1.2c-1.6,0.4-3.4,0.9-5.3,1.4c-1.9,0.5-3.8,1-5.7,1.5l-13.9,3.8c-0.7,1.3-1.3,2.8-1.8,4.3
		c-0.6,1.6-1.1,3.1-1.6,4.7c-0.5,1.6-0.9,3.2-1.3,4.7c-0.4,1.5-0.8,3-1.1,4.4c-0.1,0.4-0.3,0.8-0.6,1.2c-0.3,0.4-0.7,0.9-1.1,1.2
		c-0.4,0.4-0.9,0.7-1.3,0.9c-0.5,0.2-0.9,0.4-1.3,0.4c-0.8,0-1.4-0.2-1.9-0.5c-0.5-0.3-0.9-0.8-1.2-1.3c-0.3-0.5-0.5-1.1-0.6-1.8
		C347.2,338.8,347.1,338.1,347.1,337.5z"/>
	<path stroke="#000000" stroke-width="4" stroke-miterlimit="10" d="M432.8,309.6c0.3-1.3,0.7-2.8,1.1-4.4c0.4-1.6,0.9-3.3,1.4-5.1
		c0.5-1.7,1-3.5,1.5-5.3c0.5-1.8,1-3.5,1.5-5.1c0.5-1.6,0.9-3.2,1.4-4.6c0.4-1.4,0.8-2.6,1.1-3.6c0.6-2.2,1.3-4.5,1.8-6.7
		c0.6-2.2,1.1-4.6,1.7-7.1c0.7-1.3,1.6-2.3,2.8-2.8c1.2-0.6,2.4-0.8,3.8-0.8c1.1,0.6,2,1.4,2.6,2.4c0.6,1,1,2.1,1,3.4
		c0,0.9-0.1,1.9-0.4,3.1c-0.3,1.1-0.7,2.4-1.1,3.7c-0.4,1.3-0.9,2.7-1.5,4.2c-0.5,1.5-1.1,3-1.6,4.5c-1,2.8-1.9,5.6-2.9,8.4
		c-1,2.8-1.9,5.8-2.8,8.9c-0.2,0.8-0.5,1.6-0.8,2.5c-0.3,0.8-0.6,1.7-0.8,2.7c-0.3,1-0.6,2-0.9,3.2c-0.3,1.2-0.7,2.5-1,4.1
		c-0.4,1.8-0.8,3.6-1.1,5.5c-0.3,1.8-0.6,3.7-0.9,5.5c-0.3,1.8-0.6,3.7-0.9,5.6c-0.3,1.9-0.8,3.8-1.2,5.7c-0.2,0.7-0.5,1.3-0.9,1.8
		c-0.4,0.5-0.9,1-1.5,1.4c-0.5,0.4-1.1,0.7-1.7,0.9c-0.6,0.2-1.2,0.3-1.7,0.3c-0.5,0-1.1,0-1.6-0.1c-0.5-0.1-0.9-0.3-1.2-0.6
		c-0.4-0.4-0.7-0.9-1-1.5c-0.2-0.5-0.4-1.1-0.4-1.7c0-0.2,0-0.3,0-0.5c0-0.2,0-0.3,0.1-0.5L432.8,309.6z"/>
	<path stroke="#000000" stroke-width="4" stroke-miterlimit="10" d="M479.1,330.8c1.3-5.7,2.8-11.4,4.4-17.2
		c1.6-5.8,3.2-11.5,4.8-17.2c0.6-2.4,1.2-4.5,1.7-6.4c0.5-1.9,0.9-3.7,1.3-5.3c0.3-1.6,0.6-3,0.8-4.3c0.2-1.3,0.3-2.5,0.3-3.6
		c0-0.2,0-0.4,0-0.7s0-0.6-0.1-0.9c-0.3,0-1.1,0.2-2.3,0.6c-1.2,0.4-2.6,0.9-4.2,1.5c-1.6,0.6-3.3,1.3-5,2.1
		c-1.8,0.8-3.4,1.5-4.9,2.3c-1.2,0.6-2.2,1.1-3,1.5c-0.8,0.4-1.5,0.7-2.1,0.9c-0.6,0.2-1.1,0.4-1.6,0.5c-0.5,0.1-1,0.1-1.5,0.1
		c-1.1,0-2-0.4-2.7-1.2c-0.8-0.8-1.2-1.9-1.2-3.2c0-0.8,0.1-1.4,0.2-2c0.2-0.6,0.4-1.1,0.7-1.5c0.3-0.4,0.8-0.9,1.3-1.3
		c0.5-0.4,1.2-0.8,2-1.2c8.7-4.5,17.4-7.8,26.3-9.9c8.9-2.1,17.8-3.2,26.7-3.2c0.7,0,1.6,0,2.6,0.1c1,0,2,0.1,3.1,0.2
		c1,0.1,2.1,0.2,3.1,0.4c1,0.2,1.9,0.3,2.6,0.5c0.8,0.2,1.5,0.7,2.1,1.5c0.6,0.8,0.9,1.6,0.9,2.4c0,0.7-0.1,1.4-0.2,2
		c-0.1,0.7-0.3,1.2-0.6,1.7c-0.3,0.5-0.7,0.9-1.2,1.2c-0.5,0.3-1.1,0.4-1.8,0.4c-1.2-0.1-2.6-0.3-4.2-0.5c-1.6-0.2-3.2-0.3-4.8-0.3
		c-3.2,0-6.4,0.1-9.6,0.2c-3.2,0.2-6.5,0.6-9.8,1.4c-0.2,0.1-0.3,0.2-0.3,0.5c-0.1,0.3-0.1,0.7-0.1,1.1c-0.1,1.8-0.3,3.5-0.5,4.9
		c-0.2,1.4-0.5,2.8-0.8,4.2c-0.4,1.4-0.8,2.9-1.3,4.5c-0.5,1.6-1.1,3.6-1.8,5.9c-0.7,2.3-1.5,5-2.4,8.2c-0.9,3.2-1.9,7-3,11.5
		l-2.5,10c-0.6,2.3-1,4.4-1.4,6.2c-0.3,1.8-0.6,3.6-0.8,5.4c-0.1,0.6-0.7,1.1-1.6,1.6c-0.9,0.5-2,0.8-3.2,0.8c-0.7,0-1.4-0.2-2-0.6
		c-0.6-0.4-1.1-0.9-1.4-1.5c-0.4-0.6-0.6-1.3-0.8-2C478.8,332.2,478.9,331.5,479.1,330.8z"/>
</g>
</svg>
